<svg id="Capa_1" enable-background="new 0 0 512 512" height="512" viewBox="0 0 512 512" fill="#000" width="512" xmlns="http://www.w3.org/2000/svg"><g><path d="m222.469 154.111h21.43v21.43c0 6.903 5.597 12.5 12.5 12.5s12.5-5.597 12.5-12.5v-21.43h20.633c6.903 0 12.5-5.597 12.5-12.5s-5.597-12.5-12.5-12.5h-20.633v-20.633c0-6.903-5.597-12.5-12.5-12.5s-12.5 5.597-12.5 12.5v20.633h-21.43c-6.903 0-12.5 5.597-12.5 12.5s5.596 12.5 12.5 12.5z"/><path d="m451 0h-345c-33.084 0-60 26.916-60 60v392c0 33.084 26.916 60 60 60h345c8.284 0 15-6.716 15-15v-482c0-8.284-6.716-15-15-15zm-345 30h330v362h-330c-10.925 0-21.167 2.949-30 8.072v-340.072c0-16.542 13.458-30 30-30zm330 452h-330c-16.542 0-30-13.458-30-30s13.458-30 30-30h330z"/><path d="m346 330h-180c-8.284 0-15 6.716-15 15s6.716 15 15 15h180c8.284 0 15-6.716 15-15s-6.716-15-15-15z"/><path d="m346 270h-180c-8.284 0-15 6.716-15 15s6.716 15 15 15h180c8.284 0 15-6.716 15-15s-6.716-15-15-15z"/><path d="m332.938 192.5c4.553 0 8.525-2.442 10.711-6.08 6.732 3.861 14.519 6.08 22.82 6.08 25.382 0 46.031-20.649 46.031-46.031s-20.649-46.031-46.031-46.031c-7.575 0-14.722 1.851-21.031 5.106v-25.544c0-6.903-5.597-12.5-12.5-12.5s-12.5 5.597-12.5 12.5v100c0 6.903 5.596 12.5 12.5 12.5zm33.531-67.062c11.597 0 21.031 9.435 21.031 21.031s-9.435 21.031-21.031 21.031-21.031-9.435-21.031-21.031 9.434-21.031 21.031-21.031z"/><path d="m145.531 188.041c7.703 0 14.964-1.911 21.35-5.27 1.262 5.568 6.231 9.729 12.181 9.729 6.903 0 12.5-5.597 12.5-12.5v-75.979c0-6.903-5.597-12.5-12.5-12.5-5.949 0-10.918 4.16-12.181 9.728-6.386-3.359-13.647-5.27-21.35-5.27-25.382 0-46.031 20.649-46.031 46.031s20.649 46.031 46.031 46.031zm0-67.062c11.597 0 21.031 9.435 21.031 21.031s-9.435 21.031-21.031 21.031-21.031-9.435-21.031-21.031 9.435-21.031 21.031-21.031z"/></g></svg>