<svg id="Capa_1" enable-background="new 0 0 512 512" height="512" viewBox="0 0 512 512" width="512" xmlns="http://www.w3.org/2000/svg"><g><path d="m442 105h-100c-8.284 0-15 6.716-15 15s6.716 15 15 15h100c8.284 0 15-6.716 15-15s-6.716-15-15-15z"/><path d="m442 402h-100c-8.284 0-15 6.716-15 15s6.716 15 15 15h100c8.284 0 15-6.716 15-15s-6.716-15-15-15z"/><path d="m442 342h-100c-8.284 0-15 6.716-15 15s6.716 15 15 15h100c8.284 0 15-6.716 15-15s-6.716-15-15-15z"/><path d="m170 104.405h-34.406v-34.405c0-8.284-6.716-15-15-15s-15 6.716-15 15v34.405h-35.594c-8.284 0-15 6.716-15 15s6.716 15 15 15h35.594v35.595c0 8.284 6.716 15 15 15s15-6.716 15-15v-35.595h34.406c8.284 0 15-6.716 15-15s-6.716-15-15-15z"/><path d="m205 0h-170c-19.299 0-35 15.701-35 35v170c0 19.299 15.701 35 35 35h170c19.299 0 35-15.701 35-35v-170c0-19.299-15.701-35-35-35zm5 205c0 2.757-2.243 5-5 5h-170c-2.757 0-5-2.243-5-5v-170c0-2.757 2.243-5 5-5h170c2.757 0 5 2.243 5 5z"/><path d="m477 272h-170c-19.299 0-35 15.701-35 35v170c0 19.299 15.701 35 35 35h170c19.299 0 35-15.701 35-35v-170c0-19.299-15.701-35-35-35zm5 205c0 2.757-2.243 5-5 5h-170c-2.757 0-5-2.243-5-5v-170c0-2.757 2.243-5 5-5h170c2.757 0 5 2.243 5 5z"/><path d="m477 0h-170c-19.299 0-35 15.701-35 35v170c0 19.299 15.701 35 35 35h170c19.299 0 35-15.701 35-35v-170c0-19.299-15.701-35-35-35zm5 205c0 2.757-2.243 5-5 5h-170c-2.757 0-5-2.243-5-5v-170c0-2.757 2.243-5 5-5h170c2.757 0 5 2.243 5 5z"/><path d="m205 272h-170c-19.299 0-35 15.701-35 35v170c0 19.299 15.701 35 35 35h170c19.299 0 35-15.701 35-35v-170c0-19.299-15.701-35-35-35zm5 205c0 2.757-2.243 5-5 5h-170c-2.757 0-5-2.243-5-5v-170c0-2.757 2.243-5 5-5h170c2.757 0 5 2.243 5 5z"/><path d="m180.606 331.988c-5.857-5.857-15.355-5.857-21.213 0l-38.799 38.799-39.988-39.988c-5.857-5.857-15.355-5.857-21.213 0s-5.858 15.355 0 21.213l39.989 39.988-39.988 39.988c-5.858 5.857-5.858 15.355 0 21.213 2.929 2.929 6.768 4.394 10.606 4.394s7.678-1.465 10.606-4.394l39.988-39.988 38.799 38.799c2.929 2.929 6.768 4.394 10.606 4.394s7.678-1.465 10.606-4.394c5.858-5.857 5.858-15.355 0-21.213l-38.797-38.799 38.799-38.799c5.857-5.857 5.857-15.355-.001-21.213z"/></g></svg>